<?xml version="1.0" standalone="no"?>
<!DOCTYPE svg PUBLIC "-//W3C//DTD SVG 20010904//EN"
 "http://www.w3.org/TR/2001/REC-SVG-20010904/DTD/svg10.dtd">
<svg version="1.0" xmlns="http://www.w3.org/2000/svg"
 width="1280.000000pt" height="720.000000pt" viewBox="0 0 1280.000000 720.000000"
 preserveAspectRatio="xMidYMid meet">

<g transform="translate(0.000000,720.000000) scale(0.100000,-0.100000)"
fill="#000000" stroke="none">
<path d="M0 3600 l0 -3600 6400 0 6400 0 0 3600 0 3600 -6400 0 -6400 0 0
-3600z m5370 2640 l0 -40 -81 0 c-76 0 -82 -2 -110 -29 -20 -20 -29 -39 -29
-61 0 -22 9 -41 29 -61 28 -27 34 -29 113 -29 95 0 122 -12 116 -51 -3 -23 -6
-24 -93 -27 -113 -4 -153 8 -198 57 -61 68 -59 154 4 226 38 42 71 53 172 54
l77 1 0 -40z m478 28 c8 -8 12 -51 12 -130 l0 -117 103 -3 102 -3 3 -37 3 -38
-145 0 -146 0 0 154 c0 127 3 157 16 170 19 19 36 20 52 4z m620 0 c7 -7 12
-44 12 -98 0 -84 11 -119 44 -142 21 -15 84 -8 107 11 21 17 24 29 27 103 4
108 8 125 33 133 39 13 49 -10 49 -109 0 -67 -5 -102 -19 -132 -53 -116 -225
-126 -292 -17 -19 30 -24 55 -27 129 -5 97 6 134 36 134 10 0 23 -5 30 -12z
m948 -7 c42 -25 61 -80 44 -122 -10 -23 -10 -33 -1 -42 6 -6 11 -31 11 -55 0
-35 -6 -49 -29 -73 l-29 -29 -141 0 -141 0 0 170 0 170 128 0 c108 0 132 -3
158 -19z m-10 -518 c15 -15 40 -19 155 -21 l137 -3 -13 -57 c-25 -110 -27
-133 -13 -130 8 2 14 -10 16 -35 3 -32 6 -36 25 -32 12 2 115 14 230 25 506
49 631 61 771 75 82 9 151 14 153 11 10 -10 -24 -103 -57 -154 -37 -58 -78
-95 -139 -127 -66 -33 -44 -30 -606 -85 -289 -28 -414 -37 -409 -28 3 5 17 8
32 8 15 0 37 3 50 6 22 6 23 9 20 128 l-3 121 -35 0 -35 0 -22 -110 c-13 -60
-25 -123 -27 -140 -3 -16 -5 -30 -6 -30 -1 0 -8 -29 -15 -65 -7 -36 -32 -152
-54 -259 -23 -106 -40 -195 -37 -198 2 -2 62 2 133 11 128 15 682 70 717 71 9
0 15 -73 6 -78 -3 -1 -20 -24 -37 -52 -42 -66 -87 -108 -148 -138 -70 -35 -72
-35 -578 -81 -81 -7 -150 -16 -154 -20 -6 -6 -24 -81 -44 -186 -15 -82 -16
-84 -51 -99 -18 -8 -269 -119 -557 -247 l-523 -232 -62 28 c-33 15 -198 87
-366 159 -438 190 -694 303 -702 310 -3 3 -18 62 -32 131 -14 69 -40 188 -56
264 -17 77 -30 141 -30 143 0 3 -5 3 -11 1 -8 -3 -13 -46 -15 -121 l-4 -116
32 -10 33 -9 -30 -1 c-27 -1 -147 9 -455 39 -143 13 -203 31 -266 79 -66 49
-134 153 -134 203 0 35 2 38 23 33 12 -2 74 -9 137 -15 263 -23 540 -51 608
-61 41 -6 76 -9 78 -6 3 2 -14 94 -36 203 -23 110 -52 253 -65 319 -13 66 -31
157 -41 203 l-17 83 -41 -3 -41 -3 -1 -118 c0 -65 4 -121 8 -124 5 -2 30 -9
56 -14 58 -10 -120 -3 -248 11 -47 5 -137 14 -200 20 -248 23 -414 41 -439 47
-92 22 -188 102 -232 194 -25 51 -44 119 -34 119 3 0 71 -7 152 -15 142 -14
443 -43 683 -66 63 -6 162 -17 220 -24 58 -7 107 -11 110 -8 2 2 -8 66 -23
141 -15 75 -27 140 -27 145 0 4 578 7 1284 7 1210 0 1286 -1 1302 -17z m-4091
-453 c176 -17 435 -42 575 -56 140 -13 350 -34 465 -45 116 -11 271 -26 345
-34 74 -9 147 -16 161 -17 22 -2 25 -6 24 -35 -1 -18 3 -33 9 -33 6 0 4 -5 -4
-10 -17 -12 -19 -11 -510 36 -201 19 -403 39 -450 43 -47 5 -264 26 -482 47
-218 21 -399 36 -402 33 -8 -8 19 -102 48 -165 69 -150 218 -273 376 -312 25
-6 169 -22 320 -37 324 -31 386 -39 352 -50 -15 -5 -25 -18 -29 -36 -5 -27 -8
-29 -57 -29 -28 0 -89 4 -136 10 -47 5 -161 16 -255 25 -272 25 -408 82 -537
224 -95 105 -178 308 -178 437 0 37 2 41 23 38 12 -2 166 -17 342 -34z m6305
-9 c0 -64 -46 -226 -87 -303 -48 -93 -164 -211 -253 -261 -106 -58 -180 -74
-475 -102 -148 -14 -289 -28 -312 -31 -38 -5 -43 -3 -43 14 0 11 -9 31 -20 45
l-20 25 58 6 c31 4 174 18 317 31 143 14 280 29 305 35 114 23 249 111 323
210 44 58 98 174 112 238 6 30 5 32 -22 32 -16 0 -330 -29 -698 -65 -933 -91
-1085 -105 -1120 -105 -27 0 -31 3 -31 28 1 15 8 34 16 43 17 17 -17 13 770
90 283 28 643 63 800 78 157 16 306 29 333 30 l47 1 0 -39z m-2166 -1283 c40
-33 303 -256 340 -290 18 -16 27 -49 30 -105 0 -13 6 -23 11 -23 6 0 3 -5 -5
-10 -8 -5 -10 -10 -4 -10 11 0 23 -27 28 -63 4 -28 -8 -18 -91 79 -340 396
-365 424 -388 424 -27 0 -42 16 -23 23 31 13 63 5 102 -25z m-2341 -50 c2 -7
8 -27 15 -44 13 -31 12 -34 -145 -269 l-158 -238 -65 -22 c-36 -12 -89 -34
-117 -49 -29 -14 -53 -24 -53 -21 0 7 408 542 468 613 44 52 52 57 55 30z
m342 -253 c-1 -16 -4 -42 -8 -57 -7 -27 -7 -27 50 -30 66 -3 79 -22 44 -57
-16 -16 -34 -21 -75 -21 l-54 0 -17 -50 c-17 -53 -41 -73 -78 -68 -24 3 -27
23 -12 85 l7 32 -53 3 c-45 3 -54 6 -57 23 -4 37 14 50 79 55 62 5 62 5 76 44
18 54 41 78 72 74 22 -2 26 -8 26 -33z m1853 -17 c7 -7 12 -22 12 -35 0 -19
-5 -23 -30 -23 -41 0 -84 43 -63 63 11 12 68 8 81 -5z m148 -83 c20 -31 11
-45 -30 -45 -38 0 -56 15 -56 47 0 20 5 23 35 23 26 0 39 -6 51 -25z m-206 -4
c19 -37 12 -51 -25 -51 -26 0 -39 6 -51 25 -20 31 -11 45 31 45 24 0 38 -6 45
-19z m126 -66 c39 -39 17 -66 -42 -51 -28 7 -44 53 -23 67 23 14 39 10 65 -16z
m-948 -317 l-36 -43 -142 -8 -143 -8 -34 33 c-74 71 -80 68 168 68 l222 0 -35
-42z m-924 -13 c-20 -25 -37 -44 -38 -43 -1 2 -19 22 -41 46 l-39 42 78 0 77
0 -37 -45z m-1864 -224 l0 -160 -307 -3 -308 -3 -53 -28 c-72 -38 -138 -106
-170 -175 -22 -48 -26 -71 -26 -147 0 -79 3 -97 28 -149 37 -76 101 -140 174
-174 56 -26 62 -27 283 -30 l227 -3 1 83 c0 46 -2 88 -7 95 -5 7 -69 12 -202
15 -173 3 -199 5 -229 23 -53 31 -74 67 -79 132 -3 48 0 64 20 92 13 19 39 44
58 55 33 20 53 21 398 24 l362 3 -2 -423 -3 -423 -385 0 c-370 1 -388 2 -465
23 -124 36 -209 86 -301 177 -88 87 -138 167 -176 280 -19 59 -23 90 -23 200
0 146 17 215 83 335 49 90 176 214 269 263 133 69 177 76 526 76 l307 1 0
-159z m1200 127 c183 -56 331 -183 414 -353 63 -128 66 -156 66 -587 l0 -388
-160 0 -160 0 0 105 0 104 -244 3 c-231 3 -246 4 -273 24 -42 31 -65 78 -66
133 -1 61 26 109 79 138 37 22 49 23 273 23 l233 0 -3 123 c-4 109 -7 128 -32
179 -17 34 -50 77 -82 107 -177 161 -451 109 -557 -107 l-33 -67 -3 -382 -3
-383 -159 0 -160 0 0 379 c0 208 4 402 10 430 43 228 215 427 438 508 127 47
292 51 422 11z m895 18 c23 -10 104 -95 266 -280 127 -146 235 -266 240 -266
4 0 116 117 249 260 133 143 254 267 270 275 67 34 167 6 206 -58 18 -30 19
-62 22 -649 l3 -618 -161 0 -160 0 -2 387 -3 386 -165 -176 c-90 -97 -179
-184 -196 -192 -44 -21 -103 -19 -140 4 -18 11 -96 94 -175 184 -79 91 -147
166 -151 166 -5 1 -8 -172 -8 -384 l0 -386 -157 3 -158 3 -3 565 c-2 311 -1
593 3 627 8 73 34 117 85 144 41 23 88 24 135 5z m2653 -133 l-3 -148 -428 -3
-428 -2 3 -108 3 -107 145 -2 c80 -2 207 -4 282 -5 l137 -3 36 -35 c84 -81 64
-214 -38 -260 -38 -18 -67 -20 -304 -20 l-263 0 0 -95 0 -95 460 0 460 0 -2
-162 -3 -163 -627 -3 -628 -2 0 680 0 680 600 0 601 0 -3 -147z m1275 110
c265 -126 326 -465 121 -671 -48 -47 -158 -112 -191 -112 -7 0 -13 -3 -13 -8
0 -4 70 -77 156 -162 85 -85 162 -167 170 -182 32 -62 4 -166 -54 -200 -41
-23 -90 -29 -136 -17 -35 9 -84 54 -344 317 -167 169 -310 321 -318 339 -19
44 -18 79 6 129 37 75 48 78 273 84 l199 5 29 33 c39 44 39 90 0 134 l-29 33
-311 3 -311 3 0 -521 0 -520 -160 0 -160 0 0 675 0 676 503 -3 502 -3 68 -32z
m-6034 -1617 c48 -25 69 -106 32 -126 -23 -12 -51 10 -51 40 0 34 -33 40 -235
40 -195 0 -196 0 -220 -25 -24 -23 -25 -29 -25 -159 0 -177 -17 -166 247 -166
233 0 236 1 231 79 l-3 46 -175 5 -175 5 0 25 0 25 207 3 208 2 6 -26 c12 -47
-2 -163 -22 -186 -38 -42 -72 -48 -279 -48 -212 0 -240 5 -285 54 -24 26 -25
34 -28 167 -3 124 -1 144 17 182 36 74 46 76 299 77 174 0 229 -3 251 -14z
m1026 -198 c77 -116 141 -218 143 -225 5 -18 -16 -43 -34 -43 -8 0 -35 32 -60
70 l-47 70 -166 0 -166 -1 -45 -67 c-30 -45 -52 -67 -65 -67 -36 0 -29 40 23
122 l49 78 161 3 162 2 -75 113 c-87 130 -94 157 -41 157 16 0 54 -50 161
-212z m1181 193 c57 -35 81 -128 49 -190 -13 -26 -13 -30 2 -42 27 -23 43 -75
43 -142 0 -72 -17 -100 -48 -80 -12 7 -18 30 -22 82 -8 112 -5 111 -266 111
l-214 0 0 -90 c0 -80 -2 -90 -21 -100 -15 -9 -24 -8 -35 1 -12 9 -14 36 -12
128 l3 116 236 5 c215 5 239 7 258 24 29 26 29 86 0 112 -19 17 -41 19 -253
22 -127 2 -235 7 -239 12 -5 4 -6 17 -2 29 6 21 11 21 248 21 219 0 245 -2
273 -19z m1068 -201 c125 -188 145 -223 136 -240 -21 -39 -42 -27 -95 57 l-40
63 -168 0 -167 0 -46 -71 c-46 -71 -66 -82 -87 -48 -8 13 -1 32 33 85 70 112
52 104 227 104 84 0 153 2 153 5 0 3 -34 56 -75 118 -78 117 -86 147 -41 147
18 0 51 -43 170 -220z m1215 206 c48 -25 69 -106 32 -126 -23 -12 -51 10 -51
40 0 36 -32 41 -241 38 -253 -4 -239 6 -239 -177 0 -94 4 -132 14 -147 13 -18
30 -19 224 -22 243 -4 245 -3 240 77 l-3 46 -172 3 c-178 3 -192 6 -177 47 5
13 38 15 209 15 232 0 215 8 215 -98 0 -79 -13 -108 -60 -140 -34 -23 -38 -23
-250 -20 -190 3 -219 5 -246 22 -53 32 -64 70 -64 213 0 108 3 133 21 170 34
70 44 72 297 73 174 0 229 -3 251 -14z m1195 -1 c3 -8 3 -22 0 -30 -5 -13 -48
-15 -304 -15 -266 0 -299 2 -304 16 -16 41 2 44 309 44 251 0 294 -2 299 -15z
m-57 -191 c3 -9 2 -24 -4 -33 -9 -14 -42 -16 -247 -19 l-236 -2 0 -75 0 -75
270 0 c149 0 270 -2 270 -4 0 -2 3 -11 6 -19 3 -8 -2 -22 -11 -31 -14 -14 -51
-16 -291 -16 -171 0 -283 4 -295 10 -17 10 -19 22 -19 133 0 82 4 127 12 135
9 9 84 12 275 12 235 0 264 -2 270 -16z"/>
<path d="M7210 6105 l0 -95 84 0 c62 0 87 4 96 15 22 26 -5 45 -64 45 -54 0
-76 12 -76 41 0 25 17 33 80 39 47 4 55 8 55 25 0 18 -8 20 -87 23 l-88 3 0
-96z"/>
<path d="M5040 5592 c0 -9 204 -1030 255 -1277 15 -71 30 -133 33 -136 4 -3
138 -59 297 -124 160 -65 370 -151 468 -191 99 -41 186 -74 194 -74 18 0 908
362 939 382 6 4 14 22 17 40 3 18 15 78 27 133 37 172 250 1228 250 1239 0 8
-370 12 -1240 14 -691 1 -1240 -1 -1240 -6z m1320 -420 c-67 -52 -115 -100
-140 -140 l-25 -40 -230 -4 -230 -3 -48 -28 c-61 -36 -103 -94 -118 -163 -11
-47 -10 -62 5 -110 21 -66 62 -115 120 -143 37 -18 61 -21 189 -21 l147 0 0
65 0 65 -134 0 c-130 0 -136 1 -165 26 -39 32 -49 80 -26 124 27 52 62 60 257
60 l173 0 1 -107 c1 -119 20 -188 75 -271 25 -36 29 -53 29 -108 l0 -65 -277
3 -278 3 -75 36 c-163 78 -250 217 -250 399 0 234 150 406 384 440 28 4 186 8
351 8 l300 1 -35 -27z m710 -77 l0 -105 -233 0 c-263 0 -300 -7 -361 -66 -47
-46 -67 -85 -73 -148 -7 -70 11 -129 55 -178 58 -64 96 -76 247 -78 72 -1 138
-1 148 -1 14 1 17 11 17 66 l0 65 -141 0 -141 0 -29 29 c-41 41 -41 98 0 143
l29 33 247 3 246 3 -3 -203 c-3 -193 -4 -205 -28 -253 -19 -38 -36 -55 -70
-73 -43 -22 -52 -23 -250 -20 -235 4 -279 15 -373 92 -249 203 -211 600 71
738 95 47 160 56 415 57 l227 1 0 -105z"/>
<path d="M7515 4608 c-3 -13 -16 -69 -29 -126 -13 -56 -20 -104 -16 -107 4 -2
23 0 43 6 l36 10 -4 57 c-2 31 -4 85 -4 120 -1 61 -16 84 -26 40z"/>
</g>
</svg>
